<svg width="24" height="24" viewBox="0 0 24 24" fill="none" xmlns="http://www.w3.org/2000/svg">
<path fill-rule="evenodd" clip-rule="evenodd" d="M22 12C22 17.5228 17.5228 22 12 22C6.47715 22 2 17.5228 2 12C2 6.47715 6.47715 2 12 2C17.5228 2 22 6.47715 22 12ZM11.8666 12.9007C11.9655 13.0072 12.1341 13.0072 12.233 12.9007L14.7502 10.1899C15.0321 9.88632 15.5066 9.86875 15.8101 10.1506C16.1137 10.4325 16.1313 10.907 15.8494 11.2105L13.3322 13.9214C12.6398 14.667 11.4598 14.667 10.7674 13.9214L8.25021 11.2105C7.96836 10.907 7.98593 10.4325 8.28947 10.1506C8.593 9.86875 9.06755 9.88632 9.3494 10.1899L11.8666 12.9007Z" fill="white"/>
</svg>
