<svg width="24" height="24" viewBox="0 0 24 24" fill="none" xmlns="http://www.w3.org/2000/svg">
<path fill-rule="evenodd" clip-rule="evenodd" d="M22 12C22 6.47715 17.5228 2 12 2C6.47715 2 2 6.47715 2 12C2 17.5228 6.47715 22 12 22C17.5228 22 22 17.5228 22 12ZM11.8666 11.0993C11.9655 10.9928 12.1341 10.9928 12.233 11.0993L14.7502 13.8101C15.0321 14.1137 15.5066 14.1313 15.8101 13.8494C16.1137 13.5675 16.1313 13.093 15.8494 12.7895L13.3322 10.0786C12.6398 9.33301 11.4598 9.33301 10.7674 10.0786L8.25021 12.7895C7.96836 13.093 7.98593 13.5675 8.28947 13.8494C8.593 14.1313 9.06755 14.1137 9.3494 13.8101L11.8666 11.0993Z" fill="white"/>
</svg>
