<svg width="24" height="24" viewBox="0 0 24 24" fill="none" xmlns="http://www.w3.org/2000/svg">
<path d="M6.00002 5.17007L4.03002 6.46007C2.10002 7.72007 2.10002 10.5401 4.03002 11.8001L10.05 15.7301C11.13 16.4401 12.91 16.4401 13.99 15.7301L19.98 11.8001C21.9 10.5401 21.9 7.73007 19.98 6.47007L13.99 2.54007C12.91 1.83007 11.13 1.83007 10.05 2.54007" stroke="white" stroke-width="1.5" stroke-linecap="round" stroke-linejoin="round"/>
<path d="M5.63012 13.0801L5.62012 17.7701C5.62012 19.0401 6.60012 20.4001 7.80012 20.8001L10.9901 21.8601C11.5401 22.0401 12.4501 22.0401 13.0101 21.8601L16.2001 20.8001C17.4001 20.4001 18.3801 19.0401 18.3801 17.7701V13.1301" stroke="white" stroke-width="1.5" stroke-linecap="round" stroke-linejoin="round"/>
<path d="M21.3999 15V9" stroke="white" stroke-width="1.5" stroke-linecap="round" stroke-linejoin="round"/>
</svg>
