<svg width="10" height="11" viewBox="0 0 10 11" fill="none" xmlns="http://www.w3.org/2000/svg">
<path fill-rule="evenodd" clip-rule="evenodd" d="M5.37576 1.50648C5.1277 1.45687 4.87226 1.45687 4.6242 1.50648C4.07299 1.61672 3.59799 1.96345 3.325 2.45483L0.747535 7.09427C0.598842 7.36191 0.520813 7.66304 0.520813 7.96922C0.520813 8.96423 1.32743 9.77084 2.32244 9.77084H7.67752C8.67253 9.77084 9.47915 8.96423 9.47915 7.96922C9.47915 7.66304 9.40112 7.36191 9.25242 7.09427L6.67496 2.45483C6.40197 1.96345 5.92697 1.61672 5.37576 1.50648ZM4.99997 6.22919C4.82738 6.22919 4.68747 6.08928 4.68747 5.91669V4.25002C4.68747 4.07743 4.82738 3.93752 4.99997 3.93752C5.17256 3.93752 5.31247 4.07743 5.31247 4.25002V5.91669C5.31247 6.08928 5.17256 6.22919 4.99997 6.22919ZM5.31247 7.37502C5.31247 7.54761 5.17256 7.68752 4.99997 7.68752C4.82738 7.68752 4.68747 7.54761 4.68747 7.37502V7.16669C4.68747 6.9941 4.82738 6.85419 4.99997 6.85419C5.17256 6.85419 5.31247 6.9941 5.31247 7.16669V7.37502Z" fill="white"/>
</svg>
