<svg width="15" height="18" viewBox="0 0 15 18" fill="none" xmlns="http://www.w3.org/2000/svg">
<path fill-rule="evenodd" clip-rule="evenodd" d="M7.35519 0.666656C4.55374 0.666656 2.28272 2.93768 2.28272 5.73913V7.48283C2.28272 8.3998 1.69179 9.20178 1.22211 9.98934C0.975216 10.4033 0.833374 10.8872 0.833374 11.4043C0.833374 12.74 1.78771 13.8861 3.1108 14.0695C4.42471 14.2517 6.0665 14.435 7.35512 14.435C8.64375 14.435 10.2855 14.2517 11.5994 14.0695C12.9225 13.8861 13.8769 12.74 13.8769 11.4043C13.8769 10.8873 13.735 10.4034 13.4882 9.98939C13.0185 9.20187 12.4277 8.39992 12.4277 7.483V5.73913C12.4277 2.93768 10.1566 0.666656 7.35519 0.666656Z" fill="#334A34"/>
<path d="M0.833374 11.4043L0.208373 11.4043L0.833374 11.4043ZM3.1108 14.0695L3.02496 14.6886L3.02496 14.6886L3.1108 14.0695ZM11.5994 14.0695L11.5136 13.4505L11.5136 13.4505L11.5994 14.0695ZM13.4882 9.98939L12.9514 10.3095L13.4882 9.98939ZM2.90772 5.73913C2.90772 3.28286 4.89892 1.29166 7.35519 1.29166V0.0416557C4.20856 0.0416557 1.65772 2.5925 1.65772 5.73913H2.90772ZM2.90772 7.48283V5.73913H1.65772V7.48283H2.90772ZM1.45837 11.4043C1.45837 11.003 1.56813 10.6293 1.7589 10.3095L0.68532 9.66921C0.382297 10.1773 0.208373 10.7714 0.208373 11.4043L1.45837 11.4043ZM3.19665 13.4505C2.19695 13.3118 1.45837 12.4427 1.45837 11.4043L0.208373 11.4043C0.208373 13.0373 1.37847 14.4603 3.02496 14.6886L3.19665 13.4505ZM7.35512 13.81C6.1118 13.81 4.50548 13.6319 3.19665 13.4505L3.02496 14.6886C4.34394 14.8715 6.02119 15.06 7.35512 15.06V13.81ZM11.5136 13.4505C10.2048 13.6319 8.59844 13.81 7.35512 13.81V15.06C8.68905 15.06 10.3663 14.8715 11.6853 14.6886L11.5136 13.4505ZM13.2519 11.4043C13.2519 12.4427 12.5133 13.3118 11.5136 13.4505L11.6853 14.6886C13.3318 14.4603 14.5019 13.0373 14.5019 11.4043H13.2519ZM12.9514 10.3095C13.1421 10.6294 13.2519 11.0031 13.2519 11.4043H14.5019C14.5019 10.7715 14.328 10.1774 14.025 9.66927L12.9514 10.3095ZM11.8027 5.73913V7.483H13.0527V5.73913H11.8027ZM7.35519 1.29166C9.81146 1.29166 11.8027 3.28286 11.8027 5.73913H13.0527C13.0527 2.5925 10.5018 0.0416557 7.35519 0.0416557V1.29166ZM14.025 9.66927C13.7676 9.23764 13.5338 8.89179 13.341 8.50559C13.1564 8.1358 13.0527 7.8059 13.0527 7.483H11.8027C11.8027 8.07702 11.9943 8.60655 12.2226 9.06385C12.4427 9.50473 12.7391 9.95361 12.9514 10.3095L14.025 9.66927ZM1.65772 7.48283C1.65772 7.80575 1.55395 8.13566 1.36934 8.50547C1.17655 8.8917 0.942745 9.23756 0.68532 9.66921L1.7589 10.3095C1.97116 9.95356 2.26766 9.50466 2.48774 9.06376C2.71603 8.60644 2.90772 8.07688 2.90772 7.48283H1.65772Z" fill="#334A34"/>
<path d="M9.16663 16.3617C8.77716 16.9474 8.11118 17.3335 7.35503 17.3335C6.59888 17.3335 5.9329 16.9474 5.54344 16.3617" stroke="#334A34" stroke-width="1.25" stroke-linecap="round"/>
</svg>
