<svg width="88" height="15" viewBox="0 0 88 15" fill="none" xmlns="http://www.w3.org/2000/svg">
<path fill-rule="evenodd" clip-rule="evenodd" d="M1.25 7.5C1.25 4.04822 4.04822 1.25 7.5 1.25C10.9518 1.25 13.75 4.04822 13.75 7.5C13.75 10.9518 10.9518 13.75 7.5 13.75C4.04822 13.75 1.25 10.9518 1.25 7.5ZM7.93605 5.17442C7.93605 4.9336 7.74082 4.73837 7.5 4.73837C7.25918 4.73837 7.06395 4.9336 7.06395 5.17442V7.34442C7.06395 7.58741 7.18539 7.81433 7.38757 7.94911L9.00231 9.0256C9.20269 9.15919 9.47341 9.10504 9.607 8.90467C9.74058 8.70429 9.68644 8.43356 9.48606 8.29998L7.93605 7.26663V5.17442Z" fill="#334A34"/>
<path d="M15 7.5L51 7.5" stroke="#ABABAB" stroke-width="0.5" stroke-linecap="round" stroke-linejoin="round" stroke-dasharray="4 4"/>
<path d="M51 7.5L87 7.5" stroke="#ABABAB" stroke-width="0.5" stroke-linecap="round" stroke-linejoin="round" stroke-dasharray="4 4"/>
</svg>
