<svg width="88" height="15" viewBox="0 0 88 15" fill="none" xmlns="http://www.w3.org/2000/svg">
<path fill-rule="evenodd" clip-rule="evenodd" d="M7.5 13.75C10.9518 13.75 13.75 10.9518 13.75 7.5C13.75 4.04822 10.9518 1.25 7.5 1.25C4.04822 1.25 1.25 4.04822 1.25 7.5C1.25 10.9518 4.04822 13.75 7.5 13.75ZM10.9742 5.93767C11.1469 5.74479 11.1305 5.44845 10.9377 5.27577C10.7448 5.10308 10.4484 5.11945 10.2758 5.31233L8.17003 7.66432C7.74335 8.1409 7.456 8.46017 7.21032 8.66666C6.97629 8.86337 6.83883 8.90625 6.71875 8.90625C6.59867 8.90625 6.46121 8.86337 6.22718 8.66666C5.9815 8.46017 5.69415 8.1409 5.26747 7.66432L4.72423 7.05756C4.55155 6.86468 4.25521 6.84831 4.06233 7.02099C3.86945 7.19368 3.85308 7.49002 4.02577 7.6829L4.59221 8.31558C4.98961 8.75949 5.32109 9.12976 5.62397 9.38433C5.94437 9.65363 6.28995 9.84375 6.71875 9.84375C7.14755 9.84375 7.49313 9.65363 7.81353 9.38433C8.11641 9.12976 8.44789 8.75949 8.84529 8.31558L10.9742 5.93767Z" fill="#334A34"/>
<path d="M15 7.5L87 7.5" stroke="#334A34" stroke-width="0.5" stroke-linecap="round"/>
</svg>
