<svg width="24" height="24" viewBox="0 0 24 24" fill="none" xmlns="http://www.w3.org/2000/svg">
<path d="M2 16L4.58451 9.42125C4.85906 8.72239 5 7.9782 5 7.22734V6C5 4.89543 5.89543 4 7 4H17C18.1046 4 19 4.89543 19 6V7.22734C19 7.9782 19.1409 8.72239 19.4155 9.42125L22 16M5 8H8M16 8H19M4 19H20C21.1046 19 22 18.1046 22 17C22 15.8954 21.1046 15 20 15H4C2.89543 15 2 15.8954 2 17C2 18.1046 2.89543 19 4 19ZM10 11H14C15.1046 11 16 10.1046 16 9C16 7.89543 15.1046 7 14 7H10C8.89543 7 8 7.89543 8 9C8 10.1046 8.89543 11 10 11Z" stroke="white" stroke-width="1.5" stroke-linecap="round"/>
</svg>
