<svg width="24" height="24" viewBox="0 0 24 24" fill="none" xmlns="http://www.w3.org/2000/svg">
<path opacity="0.4" d="M12 5.29995V21.33C12.17 21.33 12.35 21.2999 12.49 21.2199L12.53 21.2C14.45 20.15 17.8 19.05 19.97 18.76L20.26 18.7199C21.22 18.5999 22 17.7 22 16.74V4.65993C22 3.46993 21.03 2.56994 19.84 2.66994C17.74 2.83994 14.56 3.89997 12.78 5.00997L12.53 5.15993C12.38 5.24993 12.19 5.29995 12 5.29995Z" fill="white"/>
<path d="M2 4.67002V16.74C2 17.7 2.77999 18.6 3.73999 18.72L4.07001 18.76C6.25001 19.05 9.61003 20.16 11.53 21.22C11.66 21.3 11.82 21.3301 12 21.3301V5.30002C11.81 5.30002 11.62 5.25001 11.47 5.16001L11.3 5.05002C9.51999 3.93002 6.32998 2.86003 4.22998 2.68003H4.16998C2.97998 2.58003 2 3.47002 2 4.67002Z" fill="white"/>
<path d="M19 2.78003V7.07001C19 7.47001 18.56 7.70999 18.22 7.48999L17 6.67999L15.78 7.48999C15.45 7.70999 15 7.47001 15 7.07001V3.91998C16.31 3.39998 17.77 2.98003 19 2.78003Z" fill="white"/>
</svg>
