<svg width="41" height="43" viewBox="0 0 41 43" fill="none" xmlns="http://www.w3.org/2000/svg">
<g filter="url(#filter0_d_1_783)">
<rect x="4.5" y="1.5" width="32" height="32" rx="16" stroke="white" stroke-width="3" stroke-miterlimit="2.1963" stroke-linecap="round" stroke-linejoin="round" shape-rendering="crispEdges"/>
<path d="M10.9768 21.5C10.8968 21.5 10.8248 21.472 10.7608 21.416C10.7048 21.36 10.6768 21.288 10.6768 21.2V15.236L8.94883 16.568C8.87683 16.624 8.80083 16.644 8.72083 16.628C8.64883 16.612 8.58483 16.568 8.52883 16.496L7.92883 15.716C7.88083 15.644 7.86083 15.568 7.86883 15.488C7.88483 15.408 7.92883 15.344 8.00083 15.296L10.7368 13.184C10.7848 13.152 10.8288 13.132 10.8688 13.124C10.9168 13.108 10.9688 13.1 11.0248 13.1H12.2968C12.3768 13.1 12.4448 13.128 12.5008 13.184C12.5568 13.24 12.5848 13.312 12.5848 13.4V21.2C12.5848 21.288 12.5568 21.36 12.5008 21.416C12.4448 21.472 12.3768 21.5 12.2968 21.5H10.9768ZM17.403 21.62C16.827 21.62 16.331 21.54 15.915 21.38C15.507 21.212 15.167 20.984 14.895 20.696C14.631 20.4 14.431 20.06 14.295 19.676C14.167 19.284 14.091 18.868 14.067 18.428C14.059 18.212 14.051 17.972 14.043 17.708C14.043 17.436 14.043 17.164 14.043 16.892C14.051 16.62 14.059 16.372 14.067 16.148C14.083 15.708 14.159 15.296 14.295 14.912C14.439 14.528 14.647 14.192 14.919 13.904C15.191 13.616 15.531 13.392 15.939 13.232C16.355 13.064 16.843 12.98 17.403 12.98C17.963 12.98 18.447 13.064 18.855 13.232C19.263 13.392 19.603 13.616 19.875 13.904C20.147 14.192 20.351 14.528 20.487 14.912C20.631 15.296 20.715 15.708 20.739 16.148C20.747 16.372 20.751 16.62 20.751 16.892C20.759 17.164 20.759 17.436 20.751 17.708C20.751 17.972 20.747 18.212 20.739 18.428C20.715 18.868 20.635 19.284 20.499 19.676C20.363 20.06 20.159 20.4 19.887 20.696C19.623 20.984 19.283 21.212 18.867 21.38C18.459 21.54 17.971 21.62 17.403 21.62ZM17.403 20.06C17.867 20.06 18.207 19.908 18.423 19.604C18.639 19.3 18.755 18.888 18.771 18.368C18.779 18.136 18.783 17.896 18.783 17.648C18.791 17.4 18.791 17.152 18.783 16.904C18.783 16.656 18.779 16.424 18.771 16.208C18.755 15.712 18.639 15.308 18.423 14.996C18.207 14.684 17.867 14.524 17.403 14.516C16.931 14.524 16.587 14.684 16.371 14.996C16.163 15.308 16.051 15.712 16.035 16.208C16.027 16.424 16.019 16.656 16.011 16.904C16.011 17.152 16.011 17.4 16.011 17.648C16.019 17.896 16.027 18.136 16.035 18.368C16.051 18.888 16.167 19.3 16.383 19.604C16.599 19.908 16.939 20.06 17.403 20.06ZM25.4186 21.62C24.8426 21.62 24.3466 21.54 23.9306 21.38C23.5226 21.212 23.1826 20.984 22.9106 20.696C22.6466 20.4 22.4466 20.06 22.3106 19.676C22.1826 19.284 22.1066 18.868 22.0826 18.428C22.0746 18.212 22.0666 17.972 22.0586 17.708C22.0586 17.436 22.0586 17.164 22.0586 16.892C22.0666 16.62 22.0746 16.372 22.0826 16.148C22.0986 15.708 22.1746 15.296 22.3106 14.912C22.4546 14.528 22.6626 14.192 22.9346 13.904C23.2066 13.616 23.5466 13.392 23.9546 13.232C24.3706 13.064 24.8586 12.98 25.4186 12.98C25.9786 12.98 26.4626 13.064 26.8706 13.232C27.2786 13.392 27.6186 13.616 27.8906 13.904C28.1626 14.192 28.3666 14.528 28.5026 14.912C28.6466 15.296 28.7306 15.708 28.7546 16.148C28.7626 16.372 28.7666 16.62 28.7666 16.892C28.7746 17.164 28.7746 17.436 28.7666 17.708C28.7666 17.972 28.7626 18.212 28.7546 18.428C28.7306 18.868 28.6506 19.284 28.5146 19.676C28.3786 20.06 28.1746 20.4 27.9026 20.696C27.6386 20.984 27.2986 21.212 26.8826 21.38C26.4746 21.54 25.9866 21.62 25.4186 21.62ZM25.4186 20.06C25.8826 20.06 26.2226 19.908 26.4386 19.604C26.6546 19.3 26.7706 18.888 26.7866 18.368C26.7946 18.136 26.7986 17.896 26.7986 17.648C26.8066 17.4 26.8066 17.152 26.7986 16.904C26.7986 16.656 26.7946 16.424 26.7866 16.208C26.7706 15.712 26.6546 15.308 26.4386 14.996C26.2226 14.684 25.8826 14.524 25.4186 14.516C24.9466 14.524 24.6026 14.684 24.3866 14.996C24.1786 15.308 24.0666 15.712 24.0506 16.208C24.0426 16.424 24.0346 16.656 24.0266 16.904C24.0266 17.152 24.0266 17.4 24.0266 17.648C24.0346 17.896 24.0426 18.136 24.0506 18.368C24.0666 18.888 24.1826 19.3 24.3986 19.604C24.6146 19.908 24.9546 20.06 25.4186 20.06ZM29.9763 21.5C29.9063 21.5 29.8713 21.4667 29.8713 21.4C29.8713 21.38 29.8779 21.3617 29.8913 21.345L32.3563 18.095C32.3796 18.065 32.4029 18.0417 32.4263 18.025C32.4496 18.0083 32.4829 18 32.5263 18H32.7913C32.8613 18 32.8963 18.0333 32.8963 18.1C32.8963 18.12 32.8896 18.1383 32.8763 18.155L30.4113 21.405C30.3879 21.435 30.3646 21.4583 30.3413 21.475C30.3213 21.4917 30.2879 21.5 30.2413 21.5H29.9763ZM32.3813 21.53C32.1579 21.53 31.9813 21.4683 31.8513 21.345C31.7213 21.2217 31.6496 21.06 31.6363 20.86C31.6329 20.7733 31.6313 20.6983 31.6313 20.635C31.6313 20.5717 31.6329 20.4933 31.6363 20.4C31.6496 20.2 31.7179 20.0383 31.8413 19.915C31.9679 19.7917 32.1479 19.73 32.3813 19.73C32.6179 19.73 32.7979 19.7917 32.9213 19.915C33.0479 20.0383 33.1163 20.2 33.1263 20.4C33.1329 20.4933 33.1363 20.5717 33.1363 20.635C33.1363 20.6983 33.1329 20.7733 33.1263 20.86C33.1163 21.06 33.0446 21.2217 32.9113 21.345C32.7813 21.4683 32.6046 21.53 32.3813 21.53ZM32.3813 21.14C32.4546 21.14 32.5113 21.125 32.5513 21.095C32.5946 21.065 32.6263 21.0267 32.6463 20.98C32.6663 20.9333 32.6763 20.8867 32.6763 20.84C32.6829 20.7567 32.6863 20.6867 32.6863 20.63C32.6863 20.57 32.6829 20.5017 32.6763 20.425C32.6729 20.3483 32.6496 20.2783 32.6063 20.215C32.5629 20.1483 32.4879 20.115 32.3813 20.115C32.2779 20.115 32.2046 20.1483 32.1613 20.215C32.1179 20.2783 32.0929 20.3483 32.0863 20.425C32.0829 20.5017 32.0813 20.57 32.0813 20.63C32.0813 20.6867 32.0829 20.7567 32.0863 20.84C32.0929 20.8867 32.1046 20.9333 32.1213 20.98C32.1413 21.0267 32.1713 21.065 32.2113 21.095C32.2546 21.125 32.3113 21.14 32.3813 21.14ZM30.3863 19.76C30.1629 19.76 29.9863 19.7017 29.8563 19.585C29.7263 19.4683 29.6546 19.31 29.6413 19.11C29.6379 19.0233 29.6363 18.9483 29.6363 18.885C29.6363 18.8183 29.6379 18.7383 29.6413 18.645C29.6546 18.445 29.7229 18.2833 29.8463 18.16C29.9729 18.0367 30.1529 17.975 30.3863 17.975C30.6229 17.975 30.8029 18.0367 30.9263 18.16C31.0529 18.2833 31.1213 18.445 31.1313 18.645C31.1379 18.7383 31.1413 18.8183 31.1413 18.885C31.1413 18.9483 31.1379 19.0233 31.1313 19.11C31.1213 19.31 31.0496 19.4683 30.9163 19.585C30.7863 19.7017 30.6096 19.76 30.3863 19.76ZM30.3863 19.39C30.4596 19.39 30.5163 19.375 30.5563 19.345C30.5996 19.315 30.6313 19.2767 30.6513 19.23C30.6713 19.1833 30.6813 19.135 30.6813 19.085C30.6879 19.0017 30.6913 18.9317 30.6913 18.875C30.6913 18.815 30.6879 18.7467 30.6813 18.67C30.6779 18.5933 30.6546 18.5233 30.6113 18.46C30.5679 18.3967 30.4929 18.365 30.3863 18.365C30.2829 18.365 30.2096 18.3967 30.1663 18.46C30.1229 18.5233 30.0996 18.5933 30.0963 18.67C30.0929 18.7467 30.0913 18.815 30.0913 18.875C30.0913 18.9317 30.0929 19.0017 30.0963 19.085C30.0996 19.135 30.1096 19.1833 30.1263 19.23C30.1463 19.2767 30.1763 19.315 30.2163 19.345C30.2596 19.375 30.3163 19.39 30.3863 19.39Z" fill="white"/>
<path d="M38 17.5C38 27.165 30.165 35 20.5 35C10.835 35 3 27.165 3 17.5C3 7.83502 10.835 0 20.5 0C30.165 0 38 7.83502 38 17.5ZM6.00719 17.5C6.00719 25.5042 12.4958 31.9928 20.5 31.9928C28.5042 31.9928 34.9928 25.5042 34.9928 17.5C34.9928 9.49584 28.5042 3.00719 20.5 3.00719C12.4958 3.00719 6.00719 9.49584 6.00719 17.5Z" fill="#FF5C5C"/>
</g>
<defs>
<filter id="filter0_d_1_783" x="0.5" y="0" width="40" height="42.5" filterUnits="userSpaceOnUse" color-interpolation-filters="sRGB">
<feFlood flood-opacity="0" result="BackgroundImageFix"/>
<feColorMatrix in="SourceAlpha" type="matrix" values="0 0 0 0 0 0 0 0 0 0 0 0 0 0 0 0 0 0 127 0" result="hardAlpha"/>
<feOffset dy="5"/>
<feGaussianBlur stdDeviation="1.25"/>
<feComposite in2="hardAlpha" operator="out"/>
<feColorMatrix type="matrix" values="0 0 0 0 0.036875 0 0 0 0 0.075 0 0 0 0 0.0385332 0 0 0 0.16 0"/>
<feBlend mode="normal" in2="BackgroundImageFix" result="effect1_dropShadow_1_783"/>
<feBlend mode="normal" in="SourceGraphic" in2="effect1_dropShadow_1_783" result="shape"/>
</filter>
</defs>
</svg>
