<svg width="36" height="35" viewBox="0 0 36 35" fill="none" xmlns="http://www.w3.org/2000/svg">
<rect x="2" y="1.5" width="32" height="32" rx="16" fill="white"/>
<rect x="2" y="1.5" width="32" height="32" rx="16" stroke="#E2E9E2" stroke-width="3" stroke-miterlimit="2.1963" stroke-linecap="round" stroke-linejoin="round"/>
<path d="M16.0397 21.62C15.4637 21.62 14.9677 21.54 14.5517 21.38C14.1437 21.212 13.8037 20.984 13.5317 20.696C13.2677 20.4 13.0677 20.06 12.9317 19.676C12.8037 19.284 12.7277 18.868 12.7037 18.428C12.6957 18.212 12.6877 17.972 12.6797 17.708C12.6797 17.436 12.6797 17.164 12.6797 16.892C12.6877 16.62 12.6957 16.372 12.7037 16.148C12.7197 15.708 12.7957 15.296 12.9317 14.912C13.0757 14.528 13.2837 14.192 13.5557 13.904C13.8277 13.616 14.1677 13.392 14.5757 13.232C14.9917 13.064 15.4797 12.98 16.0397 12.98C16.5997 12.98 17.0837 13.064 17.4917 13.232C17.8997 13.392 18.2397 13.616 18.5117 13.904C18.7837 14.192 18.9877 14.528 19.1237 14.912C19.2677 15.296 19.3517 15.708 19.3757 16.148C19.3837 16.372 19.3877 16.62 19.3877 16.892C19.3957 17.164 19.3957 17.436 19.3877 17.708C19.3877 17.972 19.3837 18.212 19.3757 18.428C19.3517 18.868 19.2717 19.284 19.1357 19.676C18.9997 20.06 18.7957 20.4 18.5237 20.696C18.2597 20.984 17.9197 21.212 17.5037 21.38C17.0957 21.54 16.6077 21.62 16.0397 21.62ZM16.0397 20.06C16.5037 20.06 16.8437 19.908 17.0597 19.604C17.2757 19.3 17.3917 18.888 17.4077 18.368C17.4157 18.136 17.4197 17.896 17.4197 17.648C17.4277 17.4 17.4277 17.152 17.4197 16.904C17.4197 16.656 17.4157 16.424 17.4077 16.208C17.3917 15.712 17.2757 15.308 17.0597 14.996C16.8437 14.684 16.5037 14.524 16.0397 14.516C15.5677 14.524 15.2237 14.684 15.0077 14.996C14.7997 15.308 14.6877 15.712 14.6717 16.208C14.6637 16.424 14.6557 16.656 14.6477 16.904C14.6477 17.152 14.6477 17.4 14.6477 17.648C14.6557 17.896 14.6637 18.136 14.6717 18.368C14.6877 18.888 14.8037 19.3 15.0197 19.604C15.2357 19.908 15.5757 20.06 16.0397 20.06ZM20.5974 21.5C20.5274 21.5 20.4924 21.4667 20.4924 21.4C20.4924 21.38 20.499 21.3617 20.5124 21.345L22.9774 18.095C23.0007 18.065 23.024 18.0417 23.0474 18.025C23.0707 18.0083 23.104 18 23.1474 18H23.4124C23.4824 18 23.5174 18.0333 23.5174 18.1C23.5174 18.12 23.5107 18.1383 23.4974 18.155L21.0324 21.405C21.009 21.435 20.9857 21.4583 20.9624 21.475C20.9424 21.4917 20.909 21.5 20.8624 21.5H20.5974ZM23.0024 21.53C22.779 21.53 22.6024 21.4683 22.4724 21.345C22.3424 21.2217 22.2707 21.06 22.2574 20.86C22.254 20.7733 22.2524 20.6983 22.2524 20.635C22.2524 20.5717 22.254 20.4933 22.2574 20.4C22.2707 20.2 22.339 20.0383 22.4624 19.915C22.589 19.7917 22.769 19.73 23.0024 19.73C23.239 19.73 23.419 19.7917 23.5424 19.915C23.669 20.0383 23.7374 20.2 23.7474 20.4C23.754 20.4933 23.7574 20.5717 23.7574 20.635C23.7574 20.6983 23.754 20.7733 23.7474 20.86C23.7374 21.06 23.6657 21.2217 23.5324 21.345C23.4024 21.4683 23.2257 21.53 23.0024 21.53ZM23.0024 21.14C23.0757 21.14 23.1324 21.125 23.1724 21.095C23.2157 21.065 23.2474 21.0267 23.2674 20.98C23.2874 20.9333 23.2974 20.8867 23.2974 20.84C23.304 20.7567 23.3074 20.6867 23.3074 20.63C23.3074 20.57 23.304 20.5017 23.2974 20.425C23.294 20.3483 23.2707 20.2783 23.2274 20.215C23.184 20.1483 23.109 20.115 23.0024 20.115C22.899 20.115 22.8257 20.1483 22.7824 20.215C22.739 20.2783 22.714 20.3483 22.7074 20.425C22.704 20.5017 22.7024 20.57 22.7024 20.63C22.7024 20.6867 22.704 20.7567 22.7074 20.84C22.714 20.8867 22.7257 20.9333 22.7424 20.98C22.7624 21.0267 22.7924 21.065 22.8324 21.095C22.8757 21.125 22.9324 21.14 23.0024 21.14ZM21.0074 19.76C20.784 19.76 20.6074 19.7017 20.4774 19.585C20.3474 19.4683 20.2757 19.31 20.2624 19.11C20.259 19.0233 20.2574 18.9483 20.2574 18.885C20.2574 18.8183 20.259 18.7383 20.2624 18.645C20.2757 18.445 20.344 18.2833 20.4674 18.16C20.594 18.0367 20.774 17.975 21.0074 17.975C21.244 17.975 21.424 18.0367 21.5474 18.16C21.674 18.2833 21.7424 18.445 21.7524 18.645C21.759 18.7383 21.7624 18.8183 21.7624 18.885C21.7624 18.9483 21.759 19.0233 21.7524 19.11C21.7424 19.31 21.6707 19.4683 21.5374 19.585C21.4074 19.7017 21.2307 19.76 21.0074 19.76ZM21.0074 19.39C21.0807 19.39 21.1374 19.375 21.1774 19.345C21.2207 19.315 21.2524 19.2767 21.2724 19.23C21.2924 19.1833 21.3024 19.135 21.3024 19.085C21.309 19.0017 21.3124 18.9317 21.3124 18.875C21.3124 18.815 21.309 18.7467 21.3024 18.67C21.299 18.5933 21.2757 18.5233 21.2324 18.46C21.189 18.3967 21.114 18.365 21.0074 18.365C20.904 18.365 20.8307 18.3967 20.7874 18.46C20.744 18.5233 20.7207 18.5933 20.7174 18.67C20.714 18.7467 20.7124 18.815 20.7124 18.875C20.7124 18.9317 20.714 19.0017 20.7174 19.085C20.7207 19.135 20.7307 19.1833 20.7474 19.23C20.7674 19.2767 20.7974 19.315 20.8374 19.345C20.8807 19.375 20.9374 19.39 21.0074 19.39Z" fill="#334A34"/>
</svg>
