<svg width="40" height="43" viewBox="0 0 40 43" fill="none" xmlns="http://www.w3.org/2000/svg">
<g filter="url(#filter0_d_1051_6343)">
<rect x="2.5" width="35" height="35" rx="17.5" fill="white" shape-rendering="crispEdges"/>
<rect x="4" y="1.5" width="32" height="32" rx="16" stroke="#E2E9E2" stroke-width="3" stroke-miterlimit="2.1963" stroke-linecap="round" stroke-linejoin="round" shape-rendering="crispEdges"/>
<path d="M13.9967 21.632C13.2767 21.632 12.6727 21.516 12.1847 21.284C11.6967 21.052 11.3247 20.748 11.0687 20.372C10.8207 19.996 10.6887 19.596 10.6727 19.172C10.6727 19.1 10.6967 19.04 10.7447 18.992C10.7927 18.944 10.8527 18.92 10.9247 18.92H12.2807C12.3767 18.92 12.4527 18.944 12.5087 18.992C12.5727 19.032 12.6207 19.088 12.6527 19.16C12.7327 19.376 12.8367 19.552 12.9647 19.688C13.1007 19.824 13.2567 19.924 13.4327 19.988C13.6087 20.052 13.7967 20.084 13.9967 20.084C14.2527 20.084 14.4887 20.032 14.7047 19.928C14.9207 19.816 15.0927 19.656 15.2207 19.448C15.3487 19.24 15.4127 18.984 15.4127 18.68C15.4127 18.416 15.3527 18.184 15.2327 17.984C15.1127 17.784 14.9447 17.628 14.7287 17.516C14.5127 17.404 14.2687 17.348 13.9967 17.348C13.7887 17.348 13.6167 17.372 13.4807 17.42C13.3527 17.468 13.2447 17.528 13.1567 17.6C13.0687 17.664 12.9887 17.724 12.9167 17.78C12.8447 17.828 12.7647 17.852 12.6767 17.852H11.3447C11.2727 17.852 11.2087 17.828 11.1527 17.78C11.1047 17.724 11.0807 17.66 11.0807 17.588L11.5007 13.448C11.5167 13.336 11.5567 13.252 11.6207 13.196C11.6927 13.132 11.7767 13.1 11.8727 13.1H16.5287C16.6167 13.1 16.6887 13.128 16.7447 13.184C16.8007 13.24 16.8287 13.312 16.8287 13.4V14.36C16.8287 14.44 16.8007 14.508 16.7447 14.564C16.6887 14.62 16.6167 14.648 16.5287 14.648H13.0607L12.8807 16.412C13.0407 16.308 13.2367 16.216 13.4687 16.136C13.7087 16.048 14.0407 16.004 14.4647 16.004C14.8487 16.004 15.2127 16.068 15.5567 16.196C15.9087 16.316 16.2207 16.496 16.4927 16.736C16.7647 16.976 16.9767 17.264 17.1287 17.6C17.2887 17.928 17.3687 18.304 17.3687 18.728C17.3687 19.304 17.2327 19.812 16.9607 20.252C16.6887 20.684 16.3007 21.024 15.7967 21.272C15.2927 21.512 14.6927 21.632 13.9967 21.632ZM21.8308 21.62C21.2548 21.62 20.7588 21.54 20.3428 21.38C19.9348 21.212 19.5948 20.984 19.3228 20.696C19.0588 20.4 18.8588 20.06 18.7228 19.676C18.5948 19.284 18.5188 18.868 18.4948 18.428C18.4868 18.212 18.4788 17.972 18.4708 17.708C18.4708 17.436 18.4708 17.164 18.4708 16.892C18.4788 16.62 18.4868 16.372 18.4948 16.148C18.5108 15.708 18.5868 15.296 18.7228 14.912C18.8668 14.528 19.0748 14.192 19.3468 13.904C19.6188 13.616 19.9588 13.392 20.3668 13.232C20.7828 13.064 21.2708 12.98 21.8308 12.98C22.3908 12.98 22.8748 13.064 23.2828 13.232C23.6908 13.392 24.0308 13.616 24.3028 13.904C24.5748 14.192 24.7788 14.528 24.9148 14.912C25.0588 15.296 25.1428 15.708 25.1668 16.148C25.1748 16.372 25.1788 16.62 25.1788 16.892C25.1868 17.164 25.1868 17.436 25.1788 17.708C25.1788 17.972 25.1748 18.212 25.1668 18.428C25.1428 18.868 25.0628 19.284 24.9268 19.676C24.7908 20.06 24.5868 20.4 24.3148 20.696C24.0508 20.984 23.7108 21.212 23.2948 21.38C22.8868 21.54 22.3988 21.62 21.8308 21.62ZM21.8308 20.06C22.2948 20.06 22.6348 19.908 22.8508 19.604C23.0668 19.3 23.1828 18.888 23.1988 18.368C23.2068 18.136 23.2108 17.896 23.2108 17.648C23.2188 17.4 23.2188 17.152 23.2108 16.904C23.2108 16.656 23.2068 16.424 23.1988 16.208C23.1828 15.712 23.0668 15.308 22.8508 14.996C22.6348 14.684 22.2948 14.524 21.8308 14.516C21.3588 14.524 21.0148 14.684 20.7988 14.996C20.5908 15.308 20.4788 15.712 20.4628 16.208C20.4548 16.424 20.4468 16.656 20.4388 16.904C20.4388 17.152 20.4388 17.4 20.4388 17.648C20.4468 17.896 20.4548 18.136 20.4628 18.368C20.4788 18.888 20.5948 19.3 20.8108 19.604C21.0268 19.908 21.3668 20.06 21.8308 20.06ZM26.3884 21.5C26.3184 21.5 26.2834 21.4667 26.2834 21.4C26.2834 21.38 26.29 21.3617 26.3034 21.345L28.7684 18.095C28.7917 18.065 28.815 18.0417 28.8384 18.025C28.8617 18.0083 28.895 18 28.9384 18H29.2034C29.2734 18 29.3084 18.0333 29.3084 18.1C29.3084 18.12 29.3017 18.1383 29.2884 18.155L26.8234 21.405C26.8 21.435 26.7767 21.4583 26.7534 21.475C26.7334 21.4917 26.7 21.5 26.6534 21.5H26.3884ZM28.7934 21.53C28.57 21.53 28.3934 21.4683 28.2634 21.345C28.1334 21.2217 28.0617 21.06 28.0484 20.86C28.045 20.7733 28.0434 20.6983 28.0434 20.635C28.0434 20.5717 28.045 20.4933 28.0484 20.4C28.0617 20.2 28.13 20.0383 28.2534 19.915C28.38 19.7917 28.56 19.73 28.7934 19.73C29.03 19.73 29.21 19.7917 29.3334 19.915C29.46 20.0383 29.5284 20.2 29.5384 20.4C29.545 20.4933 29.5484 20.5717 29.5484 20.635C29.5484 20.6983 29.545 20.7733 29.5384 20.86C29.5284 21.06 29.4567 21.2217 29.3234 21.345C29.1934 21.4683 29.0167 21.53 28.7934 21.53ZM28.7934 21.14C28.8667 21.14 28.9234 21.125 28.9634 21.095C29.0067 21.065 29.0384 21.0267 29.0584 20.98C29.0784 20.9333 29.0884 20.8867 29.0884 20.84C29.095 20.7567 29.0984 20.6867 29.0984 20.63C29.0984 20.57 29.095 20.5017 29.0884 20.425C29.085 20.3483 29.0617 20.2783 29.0184 20.215C28.975 20.1483 28.9 20.115 28.7934 20.115C28.69 20.115 28.6167 20.1483 28.5734 20.215C28.53 20.2783 28.505 20.3483 28.4984 20.425C28.495 20.5017 28.4934 20.57 28.4934 20.63C28.4934 20.6867 28.495 20.7567 28.4984 20.84C28.505 20.8867 28.5167 20.9333 28.5334 20.98C28.5534 21.0267 28.5834 21.065 28.6234 21.095C28.6667 21.125 28.7234 21.14 28.7934 21.14ZM26.7984 19.76C26.575 19.76 26.3984 19.7017 26.2684 19.585C26.1384 19.4683 26.0667 19.31 26.0534 19.11C26.05 19.0233 26.0484 18.9483 26.0484 18.885C26.0484 18.8183 26.05 18.7383 26.0534 18.645C26.0667 18.445 26.135 18.2833 26.2584 18.16C26.385 18.0367 26.565 17.975 26.7984 17.975C27.035 17.975 27.215 18.0367 27.3384 18.16C27.465 18.2833 27.5334 18.445 27.5434 18.645C27.55 18.7383 27.5534 18.8183 27.5534 18.885C27.5534 18.9483 27.55 19.0233 27.5434 19.11C27.5334 19.31 27.4617 19.4683 27.3284 19.585C27.1984 19.7017 27.0217 19.76 26.7984 19.76ZM26.7984 19.39C26.8717 19.39 26.9284 19.375 26.9684 19.345C27.0117 19.315 27.0434 19.2767 27.0634 19.23C27.0834 19.1833 27.0934 19.135 27.0934 19.085C27.1 19.0017 27.1034 18.9317 27.1034 18.875C27.1034 18.815 27.1 18.7467 27.0934 18.67C27.09 18.5933 27.0667 18.5233 27.0234 18.46C26.98 18.3967 26.905 18.365 26.7984 18.365C26.695 18.365 26.6217 18.3967 26.5784 18.46C26.535 18.5233 26.5117 18.5933 26.5084 18.67C26.505 18.7467 26.5034 18.815 26.5034 18.875C26.5034 18.9317 26.505 19.0017 26.5084 19.085C26.5117 19.135 26.5217 19.1833 26.5384 19.23C26.5584 19.2767 26.5884 19.315 26.6284 19.345C26.6717 19.375 26.7284 19.39 26.7984 19.39Z" fill="#334A34"/>
<path d="M18.6582 33.44C18.5885 34.2675 19.2035 35.0016 20.0339 35C21.9622 34.9962 23.8802 34.6738 25.7095 34.0424C28.0135 33.2472 30.126 31.9795 31.9116 30.3204C33.6972 28.6614 35.1166 26.6477 36.0787 24.4083C37.0409 22.1689 37.5247 19.7531 37.499 17.3159C37.4734 14.8787 36.9389 12.4737 35.9298 10.255C34.9208 8.03632 33.4594 6.05289 31.6392 4.4318C29.8191 2.81071 27.6805 1.5877 25.3602 0.841133C23.5181 0.248386 21.5937 -0.0336391 19.6658 0.00319055C18.8355 0.019051 18.2361 0.765893 18.3231 1.59173V1.59173C18.4102 2.41757 19.1511 3.00826 19.9815 3.0072C21.4916 3.00528 22.9958 3.23938 24.4391 3.70378C26.3606 4.32206 28.1318 5.33491 29.6392 6.67743C31.1465 8.01996 32.3568 9.66255 33.1925 11.5C34.0281 13.3374 34.4708 15.3291 34.492 17.3475C34.5132 19.366 34.1126 21.3666 33.3158 23.2212C32.5189 25.0758 31.3435 26.7435 29.8647 28.1174C28.3859 29.4913 26.6365 30.5412 24.7284 31.1998C23.2952 31.6944 21.7962 31.9601 20.2864 31.99C19.4562 32.0064 18.7278 32.6125 18.6582 33.44V33.44Z" fill="#334A34"/>
</g>
<defs>
<filter id="filter0_d_1051_6343" x="0" y="0" width="40" height="42.5" filterUnits="userSpaceOnUse" color-interpolation-filters="sRGB">
<feFlood flood-opacity="0" result="BackgroundImageFix"/>
<feColorMatrix in="SourceAlpha" type="matrix" values="0 0 0 0 0 0 0 0 0 0 0 0 0 0 0 0 0 0 127 0" result="hardAlpha"/>
<feOffset dy="5"/>
<feGaussianBlur stdDeviation="1.25"/>
<feComposite in2="hardAlpha" operator="out"/>
<feColorMatrix type="matrix" values="0 0 0 0 0.036875 0 0 0 0 0.075 0 0 0 0 0.0385332 0 0 0 0.16 0"/>
<feBlend mode="normal" in2="BackgroundImageFix" result="effect1_dropShadow_1051_6343"/>
<feBlend mode="normal" in="SourceGraphic" in2="effect1_dropShadow_1051_6343" result="shape"/>
</filter>
</defs>
</svg>
